<svg 
    version="1.1" 
    id="Capa_1" 
    xmlns="http://www.w3.org/2000/svg" 
    xmlns:xlink="http://www.w3.org/1999/xlink" 
    viewBox="0 0 512 512" 
    xml:space="preserve">
  <g>
    <g>
      <path d="M256,0C114.836,0,0,114.836,0,256s114.836,256,256,256s256-114.836,256-256S397.164,0,256,0z M256,70
        c48.601,0,88,39.399,88,88s-39.399,88-88,88s-88-39.399-88-88S207.399,70,256,70z M256,472c-55.037,0-104.286-25.795-135.886-65.756
        c6.308-42.207,84.076-65.57,135.886-65.57s129.578,23.363,135.886,65.57C360.286,446.205,311.037,472,256,472z"/>
    </g>
  </g>
</svg>
